<mxfile host="app.diagrams.net" agent="Mozilla/5.0 (Windows NT 10.0; Win64; x64) AppleWebKit/537.36 (KHTML, like Gecko) Chrome/131.0.0.0 Safari/537.36" version="25.0.1">
  <diagram name="Page-1" id="2YBvvXClWsGukQMizWep">
    <mxGraphModel dx="913" dy="484" grid="1" gridSize="10" guides="1" tooltips="1" connect="1" arrows="1" fold="1" page="1" pageScale="1" pageWidth="850" pageHeight="1100" math="0" shadow="0">
      <root>
        <mxCell id="0" />
        <mxCell id="1" parent="0" />
        <mxCell id="Xcl06JI_9C51kxBz63lc-5" value="User" style="rounded=1;whiteSpace=wrap;html=1;" parent="1" vertex="1">
          <mxGeometry x="40" y="40" width="50" height="20" as="geometry" />
        </mxCell>
        <mxCell id="Xcl06JI_9C51kxBz63lc-7" value="Menus" style="rounded=1;whiteSpace=wrap;html=1;" parent="1" vertex="1">
          <mxGeometry x="160" y="40" width="70" height="20" as="geometry" />
        </mxCell>
        <mxCell id="Xcl06JI_9C51kxBz63lc-9" value="Levels" style="rounded=1;whiteSpace=wrap;html=1;" parent="1" vertex="1">
          <mxGeometry x="300" y="40" width="50" height="20" as="geometry" />
        </mxCell>
        <mxCell id="Xcl06JI_9C51kxBz63lc-11" value="" style="html=1;points=[[0,0,0,0,5],[0,1,0,0,-5],[1,0,0,0,5],[1,1,0,0,-5]];perimeter=orthogonalPerimeter;outlineConnect=0;targetShapes=umlLifeline;portConstraint=eastwest;newEdgeStyle={&quot;curved&quot;:0,&quot;rounded&quot;:0};" parent="1" vertex="1">
          <mxGeometry x="60" y="80" width="10" height="290" as="geometry" />
        </mxCell>
        <mxCell id="Xcl06JI_9C51kxBz63lc-12" value="" style="endArrow=none;dashed=1;html=1;rounded=0;entryX=0.5;entryY=1;entryDx=0;entryDy=0;" parent="1" source="Xcl06JI_9C51kxBz63lc-11" target="Xcl06JI_9C51kxBz63lc-5" edge="1">
          <mxGeometry width="50" height="50" relative="1" as="geometry">
            <mxPoint x="190" y="220" as="sourcePoint" />
            <mxPoint x="240" y="170" as="targetPoint" />
          </mxGeometry>
        </mxCell>
        <mxCell id="Xcl06JI_9C51kxBz63lc-15" value="" style="html=1;points=[[0,0,0,0,5],[0,1,0,0,-5],[1,0,0,0,5],[1,1,0,0,-5]];perimeter=orthogonalPerimeter;outlineConnect=0;targetShapes=umlLifeline;portConstraint=eastwest;newEdgeStyle={&quot;curved&quot;:0,&quot;rounded&quot;:0};" parent="1" vertex="1">
          <mxGeometry x="190" y="90" width="10" height="40" as="geometry" />
        </mxCell>
        <mxCell id="Xcl06JI_9C51kxBz63lc-17" value="" style="endArrow=none;dashed=1;html=1;rounded=0;entryX=0.5;entryY=1;entryDx=0;entryDy=0;" parent="1" source="Xcl06JI_9C51kxBz63lc-15" target="Xcl06JI_9C51kxBz63lc-7" edge="1">
          <mxGeometry width="50" height="50" relative="1" as="geometry">
            <mxPoint x="190" y="220" as="sourcePoint" />
            <mxPoint x="240" y="170" as="targetPoint" />
          </mxGeometry>
        </mxCell>
        <mxCell id="Xcl06JI_9C51kxBz63lc-18" value="" style="endArrow=classic;html=1;rounded=0;" parent="1" edge="1">
          <mxGeometry width="50" height="50" relative="1" as="geometry">
            <mxPoint x="70" y="90" as="sourcePoint" />
            <mxPoint x="190" y="90" as="targetPoint" />
          </mxGeometry>
        </mxCell>
        <mxCell id="Xcl06JI_9C51kxBz63lc-19" value="Open Game" style="text;html=1;align=center;verticalAlign=middle;whiteSpace=wrap;rounded=0;fontSize=10;" parent="1" vertex="1">
          <mxGeometry x="100" y="70" width="60" height="20" as="geometry" />
        </mxCell>
        <mxCell id="Xcl06JI_9C51kxBz63lc-24" value="" style="endArrow=none;dashed=1;html=1;rounded=0;entryX=0.5;entryY=1;entryDx=0;entryDy=0;" parent="1" target="Xcl06JI_9C51kxBz63lc-9" edge="1" source="QsjRz3YG8dipRo7An2W8-9">
          <mxGeometry width="50" height="50" relative="1" as="geometry">
            <mxPoint x="325" y="280" as="sourcePoint" />
            <mxPoint x="240" y="170" as="targetPoint" />
            <Array as="points" />
          </mxGeometry>
        </mxCell>
        <mxCell id="Xcl06JI_9C51kxBz63lc-26" value="" style="endArrow=none;dashed=1;html=1;rounded=0;" parent="1" source="Xcl06JI_9C51kxBz63lc-37" edge="1">
          <mxGeometry width="50" height="50" relative="1" as="geometry">
            <mxPoint x="195" y="280" as="sourcePoint" />
            <mxPoint x="194.71" y="130" as="targetPoint" />
          </mxGeometry>
        </mxCell>
        <mxCell id="Xcl06JI_9C51kxBz63lc-27" value="" style="endArrow=classic;html=1;rounded=0;" parent="1" edge="1">
          <mxGeometry width="50" height="50" relative="1" as="geometry">
            <mxPoint x="200" y="130.43" as="sourcePoint" />
            <mxPoint x="320" y="130" as="targetPoint" />
          </mxGeometry>
        </mxCell>
        <mxCell id="Xcl06JI_9C51kxBz63lc-28" value="Load current level" style="text;html=1;align=center;verticalAlign=middle;whiteSpace=wrap;rounded=0;fontSize=10;" parent="1" vertex="1">
          <mxGeometry x="220" y="110" width="80" height="20" as="geometry" />
        </mxCell>
        <mxCell id="Xcl06JI_9C51kxBz63lc-31" value="" style="endArrow=classic;html=1;rounded=0;dashed=1;" parent="1" edge="1">
          <mxGeometry width="50" height="50" relative="1" as="geometry">
            <mxPoint x="320" y="160" as="sourcePoint" />
            <mxPoint x="70" y="160" as="targetPoint" />
          </mxGeometry>
        </mxCell>
        <mxCell id="Xcl06JI_9C51kxBz63lc-32" value="Display Level" style="text;html=1;align=center;verticalAlign=middle;whiteSpace=wrap;rounded=0;fontSize=10;" parent="1" vertex="1">
          <mxGeometry x="200" y="140" width="110" height="20" as="geometry" />
        </mxCell>
        <mxCell id="Xcl06JI_9C51kxBz63lc-33" value="" style="endArrow=classic;html=1;rounded=0;" parent="1" edge="1">
          <mxGeometry width="50" height="50" relative="1" as="geometry">
            <mxPoint x="70" y="179.41" as="sourcePoint" />
            <mxPoint x="320" y="179.41" as="targetPoint" />
          </mxGeometry>
        </mxCell>
        <mxCell id="Xcl06JI_9C51kxBz63lc-34" value="Solve Level" style="text;html=1;align=center;verticalAlign=middle;whiteSpace=wrap;rounded=0;fontSize=10;" parent="1" vertex="1">
          <mxGeometry x="80" y="180" width="110" height="20" as="geometry" />
        </mxCell>
        <mxCell id="Xcl06JI_9C51kxBz63lc-35" value="" style="endArrow=classic;html=1;rounded=0;exitX=1;exitY=1;exitDx=0;exitDy=-5;exitPerimeter=0;entryX=1;entryY=0;entryDx=0;entryDy=5;entryPerimeter=0;" parent="1" target="QsjRz3YG8dipRo7An2W8-3" edge="1" source="QsjRz3YG8dipRo7An2W8-3">
          <mxGeometry width="50" height="50" relative="1" as="geometry">
            <mxPoint x="330" y="190" as="sourcePoint" />
            <mxPoint x="330" y="160" as="targetPoint" />
            <Array as="points">
              <mxPoint x="360" y="215" />
              <mxPoint x="360" y="185" />
            </Array>
          </mxGeometry>
        </mxCell>
        <mxCell id="Xcl06JI_9C51kxBz63lc-36" value="Load Next Level" style="text;html=1;align=center;verticalAlign=middle;whiteSpace=wrap;rounded=0;fontSize=10;" parent="1" vertex="1">
          <mxGeometry x="360" y="190" width="70" height="20" as="geometry" />
        </mxCell>
        <mxCell id="Xcl06JI_9C51kxBz63lc-38" value="" style="endArrow=none;dashed=1;html=1;rounded=0;" parent="1" target="Xcl06JI_9C51kxBz63lc-37" edge="1">
          <mxGeometry width="50" height="50" relative="1" as="geometry">
            <mxPoint x="195" y="370" as="sourcePoint" />
            <mxPoint x="194.71" y="210" as="targetPoint" />
          </mxGeometry>
        </mxCell>
        <mxCell id="Xcl06JI_9C51kxBz63lc-37" value="" style="html=1;points=[[0,0,0,0,5],[0,1,0,0,-5],[1,0,0,0,5],[1,1,0,0,-5]];perimeter=orthogonalPerimeter;outlineConnect=0;targetShapes=umlLifeline;portConstraint=eastwest;newEdgeStyle={&quot;curved&quot;:0,&quot;rounded&quot;:0};" parent="1" vertex="1">
          <mxGeometry x="190" y="294" width="10" height="40" as="geometry" />
        </mxCell>
        <mxCell id="Xcl06JI_9C51kxBz63lc-39" value="" style="endArrow=classic;html=1;rounded=0;" parent="1" edge="1">
          <mxGeometry width="50" height="50" relative="1" as="geometry">
            <mxPoint x="70" y="294" as="sourcePoint" />
            <mxPoint x="190" y="294" as="targetPoint" />
          </mxGeometry>
        </mxCell>
        <mxCell id="Xcl06JI_9C51kxBz63lc-40" value="Request Options" style="text;html=1;align=center;verticalAlign=middle;whiteSpace=wrap;rounded=0;fontSize=10;" parent="1" vertex="1">
          <mxGeometry x="80" y="280" width="110" height="20" as="geometry" />
        </mxCell>
        <mxCell id="Xcl06JI_9C51kxBz63lc-41" value="" style="endArrow=classic;html=1;rounded=0;" parent="1" edge="1">
          <mxGeometry width="50" height="50" relative="1" as="geometry">
            <mxPoint x="200" y="324" as="sourcePoint" />
            <mxPoint x="200" y="304" as="targetPoint" />
            <Array as="points">
              <mxPoint x="220" y="324" />
              <mxPoint x="220" y="304" />
            </Array>
          </mxGeometry>
        </mxCell>
        <mxCell id="Xcl06JI_9C51kxBz63lc-42" value="Toggle Sound" style="text;html=1;align=center;verticalAlign=middle;whiteSpace=wrap;rounded=0;fontSize=10;" parent="1" vertex="1">
          <mxGeometry x="210" y="304" width="60" height="20" as="geometry" />
        </mxCell>
        <mxCell id="Xcl06JI_9C51kxBz63lc-43" value="" style="endArrow=classic;html=1;rounded=0;exitX=0;exitY=1;exitDx=0;exitDy=-5;exitPerimeter=0;dashed=1;" parent="1" edge="1">
          <mxGeometry width="50" height="50" relative="1" as="geometry">
            <mxPoint x="190" y="334" as="sourcePoint" />
            <mxPoint x="70.00000000000006" y="334" as="targetPoint" />
          </mxGeometry>
        </mxCell>
        <mxCell id="Xcl06JI_9C51kxBz63lc-44" value="Save/Exit" style="text;html=1;align=center;verticalAlign=middle;whiteSpace=wrap;rounded=0;fontSize=10;dashed=1;" parent="1" vertex="1">
          <mxGeometry x="80" y="314" width="110" height="20" as="geometry" />
        </mxCell>
        <mxCell id="Xcl06JI_9C51kxBz63lc-45" value="" style="endArrow=classic;html=1;rounded=0;" parent="1" edge="1">
          <mxGeometry width="50" height="50" relative="1" as="geometry">
            <mxPoint x="200" y="300" as="sourcePoint" />
            <mxPoint x="320" y="300" as="targetPoint" />
          </mxGeometry>
        </mxCell>
        <mxCell id="Xcl06JI_9C51kxBz63lc-46" value="Return to game" style="text;html=1;align=center;verticalAlign=middle;whiteSpace=wrap;rounded=0;fontSize=10;" parent="1" vertex="1">
          <mxGeometry x="220" y="280" width="80" height="20" as="geometry" />
        </mxCell>
        <mxCell id="QsjRz3YG8dipRo7An2W8-2" value="" style="endArrow=none;dashed=1;html=1;rounded=0;" edge="1" parent="1" source="QsjRz3YG8dipRo7An2W8-3">
          <mxGeometry width="50" height="50" relative="1" as="geometry">
            <mxPoint x="325" y="280" as="sourcePoint" />
            <mxPoint x="325" y="370" as="targetPoint" />
            <Array as="points" />
          </mxGeometry>
        </mxCell>
        <mxCell id="QsjRz3YG8dipRo7An2W8-3" value="" style="html=1;points=[[0,0,0,0,5],[0,1,0,0,-5],[1,0,0,0,5],[1,1,0,0,-5]];perimeter=orthogonalPerimeter;outlineConnect=0;targetShapes=umlLifeline;portConstraint=eastwest;newEdgeStyle={&quot;curved&quot;:0,&quot;rounded&quot;:0};" vertex="1" parent="1">
          <mxGeometry x="320" y="180" width="10" height="40" as="geometry" />
        </mxCell>
        <mxCell id="QsjRz3YG8dipRo7An2W8-5" value="" style="endArrow=classic;html=1;rounded=0;" edge="1" parent="1">
          <mxGeometry width="50" height="50" relative="1" as="geometry">
            <mxPoint x="70" y="230" as="sourcePoint" />
            <mxPoint x="320" y="230" as="targetPoint" />
          </mxGeometry>
        </mxCell>
        <mxCell id="QsjRz3YG8dipRo7An2W8-6" value="Backtrack" style="text;html=1;align=center;verticalAlign=middle;whiteSpace=wrap;rounded=0;fontSize=10;" vertex="1" parent="1">
          <mxGeometry x="80" y="210" width="110" height="20" as="geometry" />
        </mxCell>
        <mxCell id="QsjRz3YG8dipRo7An2W8-7" value="" style="endArrow=classic;html=1;rounded=0;" edge="1" parent="1" source="QsjRz3YG8dipRo7An2W8-9" target="QsjRz3YG8dipRo7An2W8-9">
          <mxGeometry width="50" height="50" relative="1" as="geometry">
            <mxPoint x="330" y="240" as="sourcePoint" />
            <mxPoint x="330" y="210" as="targetPoint" />
            <Array as="points">
              <mxPoint x="360" y="265" />
              <mxPoint x="360" y="235" />
            </Array>
          </mxGeometry>
        </mxCell>
        <mxCell id="QsjRz3YG8dipRo7An2W8-8" value="Load previous level" style="text;html=1;align=center;verticalAlign=middle;whiteSpace=wrap;rounded=0;fontSize=10;" vertex="1" parent="1">
          <mxGeometry x="360" y="240" width="70" height="20" as="geometry" />
        </mxCell>
        <mxCell id="QsjRz3YG8dipRo7An2W8-12" value="" style="endArrow=none;dashed=1;html=1;rounded=0;entryX=0.5;entryY=1;entryDx=0;entryDy=0;" edge="1" parent="1" target="QsjRz3YG8dipRo7An2W8-9">
          <mxGeometry width="50" height="50" relative="1" as="geometry">
            <mxPoint x="325" y="280" as="sourcePoint" />
            <mxPoint x="325" y="60" as="targetPoint" />
            <Array as="points" />
          </mxGeometry>
        </mxCell>
        <mxCell id="QsjRz3YG8dipRo7An2W8-9" value="" style="html=1;points=[[0,0,0,0,5],[0,1,0,0,-5],[1,0,0,0,5],[1,1,0,0,-5]];perimeter=orthogonalPerimeter;outlineConnect=0;targetShapes=umlLifeline;portConstraint=eastwest;newEdgeStyle={&quot;curved&quot;:0,&quot;rounded&quot;:0};" vertex="1" parent="1">
          <mxGeometry x="320" y="120" width="10" height="190" as="geometry" />
        </mxCell>
      </root>
    </mxGraphModel>
  </diagram>
</mxfile>
